<mxfile host="app.diagrams.net" agent="Mozilla/5.0 (Windows NT 10.0; Win64; x64) AppleWebKit/537.36 (KHTML, like Gecko) Chrome/131.0.0.0 Safari/537.36 Edg/131.0.0.0" version="25.0.3">
  <diagram name="Page-1" id="-jfW26U2qnBn4Qd5XH0d">
    <mxGraphModel dx="1042" dy="533" grid="1" gridSize="10" guides="1" tooltips="1" connect="1" arrows="1" fold="1" page="1" pageScale="1" pageWidth="850" pageHeight="1100" math="0" shadow="0">
      <root>
        <mxCell id="0" />
        <mxCell id="1" parent="0" />
        <mxCell id="lcvUIYAWcJtQJGB7nP7y-10" style="edgeStyle=orthogonalEdgeStyle;rounded=0;orthogonalLoop=1;jettySize=auto;html=1;exitX=0.5;exitY=0;exitDx=0;exitDy=0;exitPerimeter=0;entryX=0;entryY=0.5;entryDx=0;entryDy=0;" edge="1" parent="1" source="lcvUIYAWcJtQJGB7nP7y-1" target="lcvUIYAWcJtQJGB7nP7y-5">
          <mxGeometry relative="1" as="geometry" />
        </mxCell>
        <mxCell id="lcvUIYAWcJtQJGB7nP7y-12" style="edgeStyle=orthogonalEdgeStyle;rounded=0;orthogonalLoop=1;jettySize=auto;html=1;exitX=0.5;exitY=0;exitDx=0;exitDy=0;exitPerimeter=0;entryX=0;entryY=0.5;entryDx=0;entryDy=0;" edge="1" parent="1" source="lcvUIYAWcJtQJGB7nP7y-1" target="lcvUIYAWcJtQJGB7nP7y-11">
          <mxGeometry relative="1" as="geometry" />
        </mxCell>
        <mxCell id="lcvUIYAWcJtQJGB7nP7y-14" style="edgeStyle=orthogonalEdgeStyle;rounded=0;orthogonalLoop=1;jettySize=auto;html=1;exitX=0.5;exitY=0.5;exitDx=0;exitDy=0;exitPerimeter=0;entryX=0;entryY=0.5;entryDx=0;entryDy=0;" edge="1" parent="1" source="lcvUIYAWcJtQJGB7nP7y-1" target="lcvUIYAWcJtQJGB7nP7y-13">
          <mxGeometry relative="1" as="geometry" />
        </mxCell>
        <mxCell id="lcvUIYAWcJtQJGB7nP7y-18" style="edgeStyle=orthogonalEdgeStyle;rounded=0;orthogonalLoop=1;jettySize=auto;html=1;exitX=0.5;exitY=0.5;exitDx=0;exitDy=0;exitPerimeter=0;entryX=0;entryY=0.5;entryDx=0;entryDy=0;" edge="1" parent="1" source="lcvUIYAWcJtQJGB7nP7y-1" target="lcvUIYAWcJtQJGB7nP7y-17">
          <mxGeometry relative="1" as="geometry" />
        </mxCell>
        <mxCell id="lcvUIYAWcJtQJGB7nP7y-20" style="edgeStyle=orthogonalEdgeStyle;rounded=0;orthogonalLoop=1;jettySize=auto;html=1;exitX=0.5;exitY=0.5;exitDx=0;exitDy=0;exitPerimeter=0;entryX=0;entryY=0.5;entryDx=0;entryDy=0;" edge="1" parent="1" source="lcvUIYAWcJtQJGB7nP7y-1" target="lcvUIYAWcJtQJGB7nP7y-19">
          <mxGeometry relative="1" as="geometry" />
        </mxCell>
        <mxCell id="lcvUIYAWcJtQJGB7nP7y-22" style="edgeStyle=orthogonalEdgeStyle;rounded=0;orthogonalLoop=1;jettySize=auto;html=1;exitX=0.5;exitY=0.5;exitDx=0;exitDy=0;exitPerimeter=0;entryX=0;entryY=0.5;entryDx=0;entryDy=0;" edge="1" parent="1" source="lcvUIYAWcJtQJGB7nP7y-1" target="lcvUIYAWcJtQJGB7nP7y-21">
          <mxGeometry relative="1" as="geometry" />
        </mxCell>
        <mxCell id="lcvUIYAWcJtQJGB7nP7y-23" style="edgeStyle=orthogonalEdgeStyle;rounded=0;orthogonalLoop=1;jettySize=auto;html=1;exitX=0.5;exitY=0.5;exitDx=0;exitDy=0;exitPerimeter=0;entryX=0;entryY=0.5;entryDx=0;entryDy=0;" edge="1" parent="1" source="lcvUIYAWcJtQJGB7nP7y-1" target="lcvUIYAWcJtQJGB7nP7y-15">
          <mxGeometry relative="1" as="geometry" />
        </mxCell>
        <mxCell id="lcvUIYAWcJtQJGB7nP7y-25" style="edgeStyle=orthogonalEdgeStyle;rounded=0;orthogonalLoop=1;jettySize=auto;html=1;exitX=0.5;exitY=0.5;exitDx=0;exitDy=0;exitPerimeter=0;entryX=0;entryY=0.5;entryDx=0;entryDy=0;" edge="1" parent="1" source="lcvUIYAWcJtQJGB7nP7y-1" target="lcvUIYAWcJtQJGB7nP7y-24">
          <mxGeometry relative="1" as="geometry" />
        </mxCell>
        <mxCell id="lcvUIYAWcJtQJGB7nP7y-1" value="Voyager" style="shape=umlActor;verticalLabelPosition=bottom;verticalAlign=top;html=1;outlineConnect=0;" vertex="1" parent="1">
          <mxGeometry x="180" y="280" width="60" height="100" as="geometry" />
        </mxCell>
        <mxCell id="lcvUIYAWcJtQJGB7nP7y-9" style="edgeStyle=orthogonalEdgeStyle;rounded=0;orthogonalLoop=1;jettySize=auto;html=1;exitX=0.5;exitY=0;exitDx=0;exitDy=0;exitPerimeter=0;entryX=1;entryY=0.5;entryDx=0;entryDy=0;" edge="1" parent="1" source="lcvUIYAWcJtQJGB7nP7y-2" target="lcvUIYAWcJtQJGB7nP7y-5">
          <mxGeometry relative="1" as="geometry" />
        </mxCell>
        <mxCell id="lcvUIYAWcJtQJGB7nP7y-27" style="edgeStyle=orthogonalEdgeStyle;rounded=0;orthogonalLoop=1;jettySize=auto;html=1;exitX=0.5;exitY=0.5;exitDx=0;exitDy=0;exitPerimeter=0;entryX=1;entryY=0.5;entryDx=0;entryDy=0;" edge="1" parent="1" source="lcvUIYAWcJtQJGB7nP7y-2" target="lcvUIYAWcJtQJGB7nP7y-26">
          <mxGeometry relative="1" as="geometry" />
        </mxCell>
        <mxCell id="lcvUIYAWcJtQJGB7nP7y-29" style="edgeStyle=orthogonalEdgeStyle;rounded=0;orthogonalLoop=1;jettySize=auto;html=1;exitX=0.5;exitY=0.5;exitDx=0;exitDy=0;exitPerimeter=0;entryX=1;entryY=0.5;entryDx=0;entryDy=0;" edge="1" parent="1" source="lcvUIYAWcJtQJGB7nP7y-2" target="lcvUIYAWcJtQJGB7nP7y-28">
          <mxGeometry relative="1" as="geometry" />
        </mxCell>
        <mxCell id="lcvUIYAWcJtQJGB7nP7y-31" style="edgeStyle=orthogonalEdgeStyle;rounded=0;orthogonalLoop=1;jettySize=auto;html=1;exitX=0.5;exitY=0.5;exitDx=0;exitDy=0;exitPerimeter=0;entryX=1;entryY=0.5;entryDx=0;entryDy=0;" edge="1" parent="1" source="lcvUIYAWcJtQJGB7nP7y-2" target="lcvUIYAWcJtQJGB7nP7y-30">
          <mxGeometry relative="1" as="geometry" />
        </mxCell>
        <mxCell id="lcvUIYAWcJtQJGB7nP7y-33" style="edgeStyle=orthogonalEdgeStyle;rounded=0;orthogonalLoop=1;jettySize=auto;html=1;exitX=0.5;exitY=0.5;exitDx=0;exitDy=0;exitPerimeter=0;entryX=1;entryY=0.5;entryDx=0;entryDy=0;" edge="1" parent="1" source="lcvUIYAWcJtQJGB7nP7y-2" target="lcvUIYAWcJtQJGB7nP7y-32">
          <mxGeometry relative="1" as="geometry" />
        </mxCell>
        <mxCell id="lcvUIYAWcJtQJGB7nP7y-35" style="edgeStyle=orthogonalEdgeStyle;rounded=0;orthogonalLoop=1;jettySize=auto;html=1;exitX=0.5;exitY=0.5;exitDx=0;exitDy=0;exitPerimeter=0;entryX=1;entryY=0.5;entryDx=0;entryDy=0;" edge="1" parent="1" source="lcvUIYAWcJtQJGB7nP7y-2" target="lcvUIYAWcJtQJGB7nP7y-34">
          <mxGeometry relative="1" as="geometry" />
        </mxCell>
        <mxCell id="lcvUIYAWcJtQJGB7nP7y-2" value="Manager&lt;div&gt;&lt;br&gt;&lt;/div&gt;" style="shape=umlActor;verticalLabelPosition=bottom;verticalAlign=top;html=1;outlineConnect=0;" vertex="1" parent="1">
          <mxGeometry x="680" y="270" width="60" height="120" as="geometry" />
        </mxCell>
        <mxCell id="lcvUIYAWcJtQJGB7nP7y-5" value="Login" style="ellipse;whiteSpace=wrap;html=1;aspect=fixed;" vertex="1" parent="1">
          <mxGeometry x="430" y="110" width="80" height="80" as="geometry" />
        </mxCell>
        <mxCell id="lcvUIYAWcJtQJGB7nP7y-11" value="Register" style="ellipse;whiteSpace=wrap;html=1;aspect=fixed;" vertex="1" parent="1">
          <mxGeometry x="430" y="200" width="80" height="80" as="geometry" />
        </mxCell>
        <mxCell id="lcvUIYAWcJtQJGB7nP7y-13" value="Book Room" style="ellipse;whiteSpace=wrap;html=1;aspect=fixed;fillColor=#d5e8d4;strokeColor=#82b366;" vertex="1" parent="1">
          <mxGeometry x="330" y="360" width="80" height="80" as="geometry" />
        </mxCell>
        <mxCell id="lcvUIYAWcJtQJGB7nP7y-15" value="Book Facility" style="ellipse;whiteSpace=wrap;html=1;aspect=fixed;fillColor=#d5e8d4;strokeColor=#82b366;" vertex="1" parent="1">
          <mxGeometry x="330" y="450" width="80" height="80" as="geometry" />
        </mxCell>
        <mxCell id="lcvUIYAWcJtQJGB7nP7y-17" value="Cancel/&lt;br&gt;Reschedule&amp;nbsp;&lt;div&gt;Facility&lt;/div&gt;" style="ellipse;whiteSpace=wrap;html=1;aspect=fixed;fillColor=#d5e8d4;strokeColor=#82b366;" vertex="1" parent="1">
          <mxGeometry x="330" y="540" width="80" height="80" as="geometry" />
        </mxCell>
        <mxCell id="lcvUIYAWcJtQJGB7nP7y-19" value="View Facility Booking" style="ellipse;whiteSpace=wrap;html=1;aspect=fixed;fillColor=#d5e8d4;strokeColor=#82b366;" vertex="1" parent="1">
          <mxGeometry x="330" y="630" width="80" height="80" as="geometry" />
        </mxCell>
        <mxCell id="lcvUIYAWcJtQJGB7nP7y-21" value="Generate Bill" style="ellipse;whiteSpace=wrap;html=1;aspect=fixed;fillColor=#d5e8d4;strokeColor=#82b366;" vertex="1" parent="1">
          <mxGeometry x="330" y="720" width="80" height="80" as="geometry" />
        </mxCell>
        <mxCell id="lcvUIYAWcJtQJGB7nP7y-24" value="Profile Management" style="ellipse;whiteSpace=wrap;html=1;aspect=fixed;fillColor=#d5e8d4;strokeColor=#82b366;" vertex="1" parent="1">
          <mxGeometry x="330" y="270" width="80" height="80" as="geometry" />
        </mxCell>
        <mxCell id="lcvUIYAWcJtQJGB7nP7y-26" value="Add Facility" style="ellipse;whiteSpace=wrap;html=1;aspect=fixed;fillColor=#d5e8d4;strokeColor=#82b366;" vertex="1" parent="1">
          <mxGeometry x="550" y="290" width="80" height="80" as="geometry" />
        </mxCell>
        <mxCell id="lcvUIYAWcJtQJGB7nP7y-28" value="View Facility Bookings" style="ellipse;whiteSpace=wrap;html=1;aspect=fixed;fillColor=#d5e8d4;strokeColor=#82b366;" vertex="1" parent="1">
          <mxGeometry x="550" y="560" width="80" height="80" as="geometry" />
        </mxCell>
        <mxCell id="lcvUIYAWcJtQJGB7nP7y-30" value="View Bills" style="ellipse;whiteSpace=wrap;html=1;aspect=fixed;fillColor=#d5e8d4;strokeColor=#82b366;" vertex="1" parent="1">
          <mxGeometry x="550" y="650" width="80" height="80" as="geometry" />
        </mxCell>
        <mxCell id="lcvUIYAWcJtQJGB7nP7y-32" value="Modify Facility" style="ellipse;whiteSpace=wrap;html=1;aspect=fixed;fillColor=#d5e8d4;strokeColor=#82b366;" vertex="1" parent="1">
          <mxGeometry x="550" y="380" width="80" height="80" as="geometry" />
        </mxCell>
        <mxCell id="lcvUIYAWcJtQJGB7nP7y-34" value="Remove Facility" style="ellipse;whiteSpace=wrap;html=1;aspect=fixed;fillColor=#d5e8d4;strokeColor=#82b366;" vertex="1" parent="1">
          <mxGeometry x="550" y="470" width="80" height="80" as="geometry" />
        </mxCell>
      </root>
    </mxGraphModel>
  </diagram>
</mxfile>
